<svg width="14" height="14" viewBox="0 0 14 14" fill="none" xmlns="http://www.w3.org/2000/svg">
<path fill-rule="evenodd" clip-rule="evenodd" d="M12.6892 0.561766C11.9402 -0.187254 10.7258 -0.187256 9.97676 0.561766L0.925393 9.61315C0.657641 9.8809 0.475132 10.2219 0.400873 10.5932L0.0255416 12.4699C-0.153399 13.3645 0.635431 14.1534 1.53014 13.9745L3.40679 13.5991C3.77809 13.5249 4.11911 13.3424 4.38686 13.0746L13.4382 4.02323C14.1873 3.27421 14.1873 2.05981 13.4382 1.31078L12.6892 0.561766ZM10.8809 1.46591C11.1306 1.21624 11.5354 1.21624 11.7851 1.46591L12.5341 2.21494C12.7838 2.46461 12.7838 2.86941 12.5341 3.11908L10.826 4.82711L9.17293 3.17394L10.8809 1.46591ZM8.26872 4.07809L1.82954 10.5173C1.74029 10.6065 1.67946 10.7202 1.6547 10.844L1.27937 12.7206L3.15602 12.3453C3.27979 12.3205 3.39347 12.2597 3.48272 12.1705L9.9219 5.73125L8.26872 4.07809Z" fill="#020914"/>
</svg>
